/* XPM */
static char *_ab877bd6a684068e2dadf7c235337dfOPmIZdiCeGgwPzpH[] = {
/* columns rows colors chars-per-pixel */
"50 50 254 2 ",
"   c None",
".  c black",
"X  c #00381E",
"o  c #00381F",
"O  c #003A1F",
"+  c #003620",
"@  c #003920",
"#  c #003A20",
"$  c #003B20",
"%  c #003822",
"&  c #003A23",
"*  c #003B23",
"=  c #053A21",
"-  c #003C21",
";  c #003D21",
":  c #003E21",
">  c #003C22",
",  c #013C22",
"<  c #003D22",
"1  c #003C23",
"2  c #003E22",
"3  c #003F22",
"4  c #003F23",
"5  c #013F23",
"6  c #023F22",
"7  c #003E24",
"8  c #003F24",
"9  c #0D3E20",
"0  c #1B501F",
"q  c #225D1F",
"w  c #2B651F",
"e  c #3A751F",
"r  c #3E7E1F",
"t  c #004023",
"y  c #004123",
"u  c #064020",
"i  c #044022",
"p  c #064322",
"a  c #004024",
"s  c #004124",
"d  c #004225",
"f  c #0A4421",
"g  c #0E4620",
"h  c #0B4922",
"j  c #0B4A22",
"k  c #0D4923",
"l  c #0F4B22",
"z  c #114B22",
"x  c #134F22",
"c  c #164F22",
"v  c #184E20",
"b  c #125023",
"n  c #165121",
"m  c #145222",
"M  c #185120",
"N  c #185022",
"B  c #1D5120",
"V  c #1E5A20",
"C  c #1E5B22",
"Z  c #1F5B22",
"A  c #225F21",
"S  c #226121",
"D  c #236022",
"F  c #226023",
"G  c #236222",
"H  c #276521",
"J  c #266622",
"K  c #276723",
"L  c #246525",
"P  c #296220",
"I  c #286521",
"U  c #2C6720",
"Y  c #2B6820",
"T  c #2A6921",
"R  c #2A6822",
"E  c #2E6A20",
"W  c #2E6B21",
"Q  c #2C6A22",
"!  c #2D6A22",
"~  c #2C6B22",
"^  c #2B6C23",
"/  c #2F6E21",
"(  c #2E6E22",
")  c #2F6F22",
"_  c #2E6E23",
"`  c #326C22",
"'  c #316F22",
"]  c #327023",
"[  c #377421",
"{  c #377523",
"}  c #3E7621",
"|  c #3A7A21",
" . c #397822",
".. c #3B7A22",
"X. c #3F7D21",
"o. c #3E7D22",
"O. c #387A24",
"+. c #52931F",
"@. c #5D9E1D",
"#. c #5FA11F",
"$. c #6BAE1B",
"%. c #6FBC16",
"&. c #6DB11D",
"*. c #6FB21E",
"=. c #70B31F",
"-. c #74B31F",
";. c #71B41F",
":. c #72B41F",
">. c #72B51F",
",. c #73B51F",
"<. c #7AB81F",
"1. c #418221",
"2. c #438321",
"3. c #418123",
"4. c #428022",
"5. c #428222",
"6. c #438222",
"7. c #438420",
"8. c #468421",
"9. c #468521",
"0. c #498820",
"q. c #4A8920",
"w. c #4E8E21",
"e. c #4F8E21",
"r. c #4F8C23",
"t. c #4E8D23",
"y. c #4E8F22",
"u. c #4C8A24",
"i. c #518E23",
"p. c #518F23",
"a. c #528F22",
"s. c #529320",
"d. c #529321",
"f. c #529122",
"g. c #529322",
"h. c #539322",
"j. c #579323",
"k. c #539421",
"l. c #549620",
"z. c #559620",
"x. c #579721",
"c. c #549422",
"v. c #569523",
"b. c #529024",
"n. c #569324",
"m. c #579821",
"M. c #5A9820",
"N. c #5A9923",
"B. c #5A9A23",
"V. c #5B9B23",
"C. c #5D9C20",
"Z. c #5C9D21",
"A. c #609F20",
"S. c #60A021",
"D. c #62A221",
"F. c #60A122",
"G. c #60A023",
"H. c #64A221",
"J. c #63A421",
"K. c #63A422",
"L. c #67A521",
"P. c #66A720",
"I. c #64A422",
"U. c #65A623",
"Y. c #66A623",
"T. c #61A124",
"R. c #63A324",
"E. c #67A524",
"W. c #6DA424",
"Q. c #69AA20",
"!. c #69AB20",
"~. c #6AAA20",
"^. c #69A822",
"/. c #68AF20",
"(. c #6CAC20",
"). c #6DAE20",
"_. c #6DAD23",
"`. c #6FAF24",
"'. c #77AA22",
"]. c #71AA2A",
"[. c #6EB322",
"{. c #6ABF2A",
"}. c #71B220",
"|. c #70B320",
" X c #70B221",
".X c #71B321",
"XX c #72B220",
"oX c #72B222",
"OX c #72B322",
"+X c #73B322",
"@X c #72B223",
"#X c #72B420",
"$X c #72B520",
"%X c #73B421",
"&X c #73B521",
"*X c #73B620",
"=X c #73B422",
"-X c #74B520",
";X c #75B520",
":X c #74B521",
">X c #75B521",
",X c #75B620",
"<X c #74B621",
"1X c #75B621",
"2X c #74B721",
"3X c #76B721",
"4X c #75B523",
"5X c #75B722",
"6X c #77B722",
"7X c #76B723",
"8X c #71B025",
"9X c #73B326",
"0X c #76B127",
"qX c #79B624",
"wX c #7AB727",
"eX c #77B821",
"rX c #77B921",
"tX c #76B822",
"yX c #77B822",
"uX c #76B922",
"iX c #77B922",
"pX c #77B823",
"aX c #77B923",
"sX c #77BB24",
"dX c #79B920",
"fX c #79B921",
"gX c #79B922",
"hX c #78B823",
"jX c #78B923",
"kX c #79B923",
"lX c #7BB923",
"zX c #79BA22",
"xX c #7BBA22",
"cX c #7ABA23",
"vX c #7BBA23",
"bX c #7ABB23",
"nX c #7ABC21",
"mX c #79BA24",
"MX c #7ABA24",
"NX c #7BBA24",
"BX c #7ABB24",
"VX c #7CB927",
"CX c #7BBC24",
"ZX c #7ABE25",
"AX c #7CBC24",
"SX c #7CBC25",
"DX c #7DBC25",
"FX c #7DBD25",
"GX c #78B42D",
"HX c #7FBB2A",
"JX c #6DC218",
"KX c #78C31E",
"LX c #76C427",
"PX c #80AF20",
/* pixels */
"                              . . . . . . . .                                       . .             ",
"                            . . . . . . . . .                                       . .             ",
"                      . . . . . . . . . . . . . . . . . .                           . .             ",
"                      . . . . . . . . . . . .                                       . .             ",
"                            . . . . . . . . .                   .                   . .             ",
"                            . . . . . . . . .                                       . .             ",
"                            . . . . . . . . .                                       . .             ",
"                            . . . . . . . . .                                       . .             ",
"                            . . . . . . . . .                                       . .             ",
"                            . . . . . . . . .                                       . .             ",
"                            . . . . . . . . .                                       . .             ",
"                            . . . . . . . . .                                       . .             ",
"    jXFX0XLX0X0X0X0X0X0XsXGX3X}.:.}.wXtX-.jXjXVXMXHX[.wXnXjX9XPXW.0X:.'.JXwX&X].GXsXjX3X$.0XjXjX    ",
"    HX3X3XFX3XtXCX*.tX3X3XjXjXjX=.3XtXjX3XjXjXFXjXjXtXtXtX3X3XMX3X:.:.jX*.tXtX3X3XjX*.tX*.jXtXjX    ",
"    sX3X3X3XjX~.~.3X:.tX~.F.Y.3X*.3X:.}.tX3X3XtXMXMX3XjX3XjXjX3X:.3XjXFXjX3X3XjX3X3X:.jX3X3XtXjX    ",
"    jXjXjXtXjX, 9 Y.3X3XB s , }.3X3X#.0.~.3XjXtXtX3X3XjX3X3XFXFXjX3XtXjXY.F.3X:.3X3X&X3X3XtX&XjX    ",
"    3XjX3X3X3XX s , :.3Xf , # F.:.tX, , B tXjXtX3X3XjXjXT.3.T.tX3XjX3X*.9 , N.3X3X3X3XjX3XjX=.jX    ",
"    :.3XtXtX3Xn X # (.}.N , , 0.(.3X, , P MXjXjXFX:.jXMX, , , 3X3XMX3X~.# , s 3X3X3XtXjXtX3X:.jX    ",
"    &XtX3XtXv.8., X ` 0.c X # , [ f., , N.N.3XtXjX3X:.f., , s CXjXtXjXj., , , 3X&XtX3X3XjXjXjXLX    ",
"    jX:.3XtX, t X # , , # X # # , # , , , , tXjX&X3X3X, , s h v.v.k.k.` , , , v.f.k.f.f.tX3XCXKX    ",
"    jXjX3XtX# , # V K K # , t # K K x , # s 3XFXtX&Xe.# , , | , , , , t # s , , , , , s }.tXjX:.    ",
"    3XjX3XtX# , t T.3X3X, , , X H.`.A , # , jXFXtX3X, , , , (.# , , , s t t s t , , , , (.tXjX[.    ",
"    3XtX3XjX, , , 3.7.8.# , , # P [ , 8 # , jXFX3X3., , , , tX( K t t b ] ` ( V , , , ( 3XjXMX}.    ",
"    3X3XjXtX, , , , n N # , # # V F s , , , jXjXK., , # , ] 3X3X~., , V CXjXjXu., s , tXtXtXMXjX    ",
"    :.3XjXjX, X , p f.v.T , , , Z.F.O., , , tXjXK , # # , tXjXjXjX, X p MXjXjXb., t p jXCXtXtXCX    ",
"    3X3X:.tX, X # p Y.Y.! , , , | X.| , , , 3XjX# , # , , &XtXjXjX, , , tXCXtX} X , N 3XMXtX3XjX    ",
"    jXtX3X3X, , , , I I , , # , , p , , , # 3XjX, , X # , K.3XtX3X# , , :.tXjXv , # e 3X3X3X3XtX    ",
"    tXtXjX:.3.| k h f , , , , t z k p p f P 3XjX3.r 0 , , e.3X3X3X, , , tX3XtX= , , A.3X3XtXjXjX    ",
"    jXjX3XtXtX}.i.e.e.8.N , , t n.i.0.e.i.F.3X3X:.&Xn , , 3.3X3X3Xs , # jXjXtX+ , , }.3XtX3XtXjX    ",
"    jXtXtX3X! U T T ^ T k , , , ^ ! T ! ! w &X3X:.3XT , , | 3X3XjX, , # 3XjXjX, , s jXMX3X:.tXjX    ",
"    MXjXjXX., , , , , , s , , t X , , , # # @.3XtXjX3., , 8.3X3XtX, , , 3XjXjX, t , jXMX*.3XjX3X    ",
"    jXMX3X3.s , t , , , s , s s , t , , , , (.*.jXtXF., , [ 3Xq A , , s F F L , s s F F N.&X3X3X    ",
"    3XjX3X9XN.v.N.T.m.N.V s , , m.N.v.v.v.+.3X3X3XjX}.X # T jX, X , , s t s s s t , , # ` tXtXtX    ",
"    3X*.3XMX&XjX3XMXjXjX( , , , MXtXtXtXjXtXtXjX3X:.tX# # g 3X, , , s , s , , s , , s , f.jX3XjX    ",
"    3X*.3XjX3XjX3XtXtXMX] , , , 3X3X3X3XjXjX3X3X3X3XFX, # Z.3XF.k.e.e.! z # # + 8 # e.F.}.3XjX3X    ",
"    jX&XtX3X3XtXjXjXtX3X`.8 , F.*.tX=.tX3X3XjXtX&X3X3XK.#.&XjXFX&X}.&X~.Y.Y.Y.E.Y.E.3X3X3XtXtXtX    ",
"    :.3X3X*.$.3X3XCXjXMXFXY.Y.=.=.tX3XtX3X3XjXjX3XtX3XtXjX3X:.tX3XtX3X3XtXtXjXtXjXjX3XtX3XtXjX<.    ",
"    jXjXjX3X}.tXtXjXtX3X3X3XtX*.*.CX3XjXjXMXtXMX*.CXtXtXjXjX&X3X:.jX3XjX3X3X3X3X3X3X3XjXjX3X3XjX    ",
"    jXjX0X0X0X0X0X0X0X0X0X0X0XsX%.9X0XFXW.0X0X0X-.0X0X0X0X0X0X0X0X0X0X0X0X0X0X0X0X0X0X0X0X{.jXjX    ",
"                                                                                                    ",
"                                                                                                    ",
"                                                                                                    ",
"                                                                                                    ",
"                                                                                                    ",
"                                                                                                    ",
"                                                                                                    ",
"                                                                                                    ",
"                                                                                                    ",
"                                                                                                    ",
"                                                                                                    "
};
