/* XPM */
static char *ade80b23c79948b0d05f30b4a2b87ef8HxY0zNATB71CibD3[] = {
/* columns rows colors chars-per-pixel */
"50 50 255 2 ",
"   c None",
".  c #FF794A",
"X  c #FF7456",
"o  c #FF7E62",
"O  c #FF6F75",
"+  c #79D176",
"@  c #7FD478",
"#  c #FFB42A",
"$  c #FFAE30",
"%  c #FFBE36",
"&  c #FFDB15",
"*  c #FFDC15",
"=  c #FFDE18",
"-  c #F3E11D",
";  c #FBE118",
":  c #F8E11A",
">  c #FFC523",
",  c #FFCE2F",
"<  c #FFDF24",
"1  c #FFD42B",
"2  c #FFDA29",
"3  c #FFDD31",
"4  c #FFDD35",
"5  c #FFDF3D",
"6  c #DCE131",
"7  c #DEE130",
"8  c #D9E237",
"9  c #DCE134",
"0  c #D6E239",
"q  c #D7E33B",
"w  c #D1E33F",
"e  c #D2E33E",
"r  c #D5E33E",
"t  c #D3E43F",
"y  c #D6E43E",
"u  c #DAE339",
"i  c #D9E33B",
"p  c #DAE33A",
"a  c #DBE33A",
"s  c #DBE43A",
"d  c #D8E33C",
"f  c #EEE123",
"g  c #EEE124",
"h  c #EEE225",
"j  c #E3E02A",
"k  c #E4E12C",
"l  c #E5E22F",
"z  c #EAE32E",
"x  c #EDE32D",
"c  c #F5E227",
"v  c #FBE221",
"b  c #F9E426",
"n  c #F2E228",
"m  c #F2E22A",
"M  c #F3E42D",
"N  c #FBE329",
"B  c #FFE12A",
"V  c #F8E32D",
"C  c #FBE32E",
"Z  c #FBE52C",
"A  c #F8E42F",
"S  c #E3E332",
"D  c #E3E333",
"F  c #E6E330",
"G  c #E7E332",
"H  c #E7E432",
"J  c #E9E330",
"K  c #EAE430",
"L  c #EDE530",
"P  c #E2E23B",
"I  c #E4E33A",
"U  c #FFE133",
"Y  c #FBE530",
"T  c #FFE339",
"R  c #FBE638",
"E  c #FF8A4A",
"W  c #FF9141",
"Q  c #FF9B56",
"!  c #FFA24B",
"~  c #FFAE4B",
"^  c #FFB546",
"/  c #FFB14E",
"(  c #FFA95B",
")  c #FF8F65",
"_  c #FF846B",
"`  c #FF966E",
"'  c #FF8679",
"]  c #FF9F7E",
"[  c #FFA462",
"{  c #FFB965",
"}  c #FFB46D",
"|  c #FFBE73",
" . c #FFBE7F",
".. c #9EDA5E",
"X. c #AFDE53",
"o. c #AFDE54",
"O. c #A7DC59",
"+. c #AADE5D",
"@. c #BEE043",
"#. c #B6E04C",
"$. c #BDE148",
"%. c #BFE24C",
"&. c #8BD669",
"*. c #8ED76D",
"=. c #91D761",
"-. c #90D862",
";. c #94D863",
":. c #95D865",
">. c #97DA67",
",. c #99DA68",
"<. c #9BDA6C",
"1. c #82D370",
"2. c #87D675",
"3. c #97DB78",
"4. c #A0DB60",
"5. c #A1DC61",
"6. c #AADF71",
"7. c #C8DB49",
"8. c #FFC542",
"9. c #FFC048",
"0. c #FFD04B",
"q. c #FFD64C",
"w. c #FFD74F",
"e. c #FFCD5D",
"r. c #FFD154",
"t. c #FFD455",
"y. c #FFD457",
"u. c #C7E243",
"i. c #C6E346",
"p. c #CBE241",
"a. c #C8E243",
"s. c #CEE340",
"d. c #CCE342",
"f. c #CCE343",
"g. c #C3E349",
"h. c #C4E34B",
"j. c #C7E449",
"k. c #C5E44B",
"l. c #C8E449",
"z. c #CAE54B",
"x. c #D2E340",
"c. c #D7E540",
"v. c #D0E444",
"b. c #D1E444",
"n. c #DCE54D",
"m. c #C5E450",
"M. c #C6E451",
"N. c #DBE95F",
"B. c #ECE748",
"V. c #FFC061",
"C. c #FFC267",
"Z. c #FFC963",
"A. c #FFCC67",
"S. c #FFDB73",
"D. c #CCE760",
"F. c #C4E669",
"G. c #C5E66F",
"H. c #C6E771",
"J. c #CEE973",
"K. c #C8E875",
"L. c #CFEA76",
"P. c #C6E77E",
"I. c #C8E879",
"U. c #CAE97B",
"Y. c #D9EA71",
"T. c #E1EA65",
"R. c #FF3686",
"E. c #FF338A",
"W. c #FB308F",
"Q. c #FC3095",
"!. c #F83598",
"~. c #ED3EB3",
"^. c #FF4883",
"/. c #FF5D94",
"(. c #FF549C",
"). c #FF569C",
"_. c #FF569D",
"`. c #FF688E",
"'. c #FF6198",
"]. c #FF4BA7",
"[. c #F54AAC",
"{. c #F655B5",
"}. c #FD56B0",
"|. c #FA55B4",
" X c #F85EBC",
".X c #FD71BC",
"XX c #E64CC2",
"oX c #DE64D8",
"OX c #D961DC",
"+X c #DF6ED8",
"@X c #E967CB",
"#X c #EA6BCD",
"$X c #E671D3",
"%X c #E678D9",
"&X c #CE64E6",
"*X c #DE77E0",
"=X c #2ABCBC",
"-X c #2BBDBC",
";X c #34C0B4",
":X c #5ECA8B",
">X c #4BC59A",
",X c #55C792",
"<X c #56C894",
"1X c #54C79B",
"2X c #68CD86",
"3X c #6ACE89",
"4X c #6CCE89",
"5X c #66CC92",
"6X c #4FC7AA",
"7X c #47C8AD",
"8X c #4FC9A9",
"9X c #52C9A1",
"0X c #72D3B3",
"qX c #21B9C4",
"wX c #0CB5E0",
"eX c #11B5E7",
"rX c #2FC2E5",
"tX c #2DC0EB",
"yX c #59CED5",
"uX c #6BD3C4",
"iX c #FFA785",
"pX c #FFB58C",
"aX c #FFAAA3",
"sX c #FFABA4",
"dX c #FFB2A1",
"fX c #90D99A",
"gX c #A9E18F",
"hX c #BDE680",
"jX c #B1E38C",
"kX c #AAE292",
"lX c #86D9AA",
"zX c #90DBA6",
"xX c #82D8B1",
"cX c #A8E3BA",
"vX c #FFCE9F",
"bX c #C4E880",
"nX c #EFF18F",
"mX c #FFE097",
"MX c #EAF199",
"NX c #FF95CB",
"BX c #FFB8C2",
"VX c #DB86E7",
"CX c #D880EB",
"ZX c #DE86E8",
"AX c #DA93F2",
"SX c #E081E3",
"DX c #EAA7EB",
"FX c #F7ADE0",
"GX c #F6B1E3",
"HX c #EBB4F1",
"JX c #E9BFF7",
"KX c #FFC8C3",
"LX c #FFCCDB",
"PX c #F5FADF",
"IX c #FFE2E7",
/* pixels */
"                                                                                                    ",
"                                                                                                    ",
"    eXAXJXHXAXAXAXVXZXSX%X%X$X#X@X X X{.|.].].(./.`.`.aX'                                           ",
"    AXJXPXAXHXJXHXHXDXDXDX%X#X@X X X X|.].].(./.`.`.BXIX' )                                         ",
"    AXJXJXCXCX&XZXDXHXHXGXGXGXFXNX.X X}.].(.'.`.aXBXKXKX] Q Q                                       ",
"    AXAXAXAXCXOXOXoXoX#XFXGXFXFXFXFXNXNXNXNXNXsXBXBXdXpXpX[ ! !                                     ",
"    AX&XCXVXZX*XoXoXXXXX~. XNXFXFXNXNXNXBXBXBXsXaXaXdXpXpX ./ ^ ^                                   ",
"    AX&X&XZXSX%X%X@XXXXX~.~.!.[..XNXFXIXIXBXaX' _ ` pXpX .| C.9.% ,                                 ",
"    CX&XOXSX%X%X$X#XXX~.~.!.!.Q.E.^.BXPXPXsX' _ ) ) [  .| | Z.e., , 1                               ",
"    VXOXOX+X%X$X@X@X X{.!.!.Q.E.R.^.BXPXIXsX_ ) Q Q ! / | Z.e.r.w.1 2 2                             ",
"    SXOXXXXX$X#X@X X{.{.[.Q.E.R.^.BXBXdXaXBXiX[ Q ! ~ ^ 9.e.r.w.w.5 < < <                           ",
"    *X+XXXXX@X@X@X X{.}.].(.R.^.NXBXaXaXiXpXvX} ! ~ ^ 8.8.8.w.w.5 T U N b c                         ",
"    %X$XXX~.~. X X{.}.].].(.'.NXBXsXaXiXiXiXpXvX| ^ % % , , 1 5 T U R Y c m j                       ",
"    $X$XXX~.~.{.{.|.].].(.'.BXBXsXaXiX] iX} }  .mXV.% , , 1 2 < U Y Y Z M L x m                     ",
"    #X#X~.~.~.[.}.].].(.'.BXBXsXaX] iXiX} } { V.S.mX0., 1 2 < v v Z C M m x z l j                   ",
"    #X@X~.!.!.!.].].(.'.BXBXsXaXdXpXiX} } { V.e.r.S.mX5 2 < v v b c M m h z H D D P                 ",
"    @X X[.!.!.Q.!.(.'.BXBXsXsXsXpXpX .} { V.9.0.0.w.S.mXT v v b c m x x z l D D 9 u c.              ",
"     X X[.Q.W.E.R./.NXBXsXsXsXpXpX . .{ V.9.0.0.w.5 4 T nXR b c M m x z F D I 9 s d y e             ",
"     X X[.W.E.R.^.LXPXBXaXdXpXpX . .| C.V.r.0.w.5 4 U B R nXR m x x z H D I s u u y e s.7.          ",
"    |.|.].E.R.R.^.IXIX] dXpXpX . .| C.A.e.r.w.4 4 B B N C B.nXL L J H D D u u d r e s.p.p.g.        ",
"    }.].(.R.R.^.^.O X _ ] pX . .| C.A.e.t.w.5 4 B N Z C C m B.nXB.H D I s u d r t s.p.u.k.g.%.      ",
"    ].].(.^.^.aXO X X . Q [  .| C.Z.e.t.w.5 5 U B N c c M M x B.nXB.D s s d r e v.s.z.i.k.%.%.*     ",
"    (.(.'.^.`.BXX X . E W ! / C.Z.e.t.w.5 5 T Y Z N c M x L z F B.nXT.u 0 0 x.x.p.p.i.g.M.PXU.hX    ",
"    (./.`.' BX' X . E W W $ ^ 9.e.t.w.5 5 T U C C c m M L J F D I T.MXT.y t v.p.u.u.g.%.F.bX+.O.    ",
"    '.`.`.sXdXo . E W W $ $ # % 0.w.5 5 T U C Y C m x L z l D D s u N.MXT.v.p.p.i.g.%.H.H.O.....    ",
"    `.`.' BXiX) E W W $ $ # > > , 3 5 T U Y Z Z M M x z F D D 9 u 0 c.N.MXY.z.i.g.D.K.U.+.4.,.-.    ",
"    '.' aXdXpXiXQ W $ $ # > > > 1 < B Y C Z c m M L L H D D 9 u u 0 t v.Y.MXY.h.D.U.P.hX..;.*.*.    ",
"      ' ] pXpX .| ~ $ # > > > 1 = = v N C C M x x K H D I s s d c.e v.v.z.Y.PXPXU.P.hXjX<.&.2.1.    ",
"        ` [  . .| V.% # > > = = * * ; b c m x L K H D I s u u y t v.v.z.k.D.PXPXP.hXjXjX3.1.+ +     ",
"        ` Q ( | C.Z.0.> > = & & * ; ; - f m x J l D 9 s s u y e v.s.z.i.h.J.MXMXU.hXjXgXgX@ + 4X    ",
"            ~ V.e.r.0.0.1 = & * ; ; - f h x K H D D u s 0 y e x.v.p.z.M.J.G.X.bXbXjXgXkXfX+ 3X3X    ",
"            / 8.8.0.0.4 3 < = ; ; - - f h l I I D s u 0 r t s.p.s.i.M.J.G.o.O.5.bXkXkXfXfX4X5X5X    ",
"                % , 4 3 B v v ; - f h h j l D P c.u 0 y x.v.s.z.k.M.L.G.o.O...;.kXcXfXfXlX5X1X1X    ",
"                , 1 2 < < N b c - f h l j l D 8 n.n.y x.s.v.s.z.M.L.H.o.+...;.&.3.cXcXzXlX1X9X8X    ",
"                    < < v b c m m h j j l D 9 s y N.N.v.s.z.z.M.L.H.o.+...=.&.1.@ cXcXlXxX8X7X7X    ",
"                    = b b c m x x z l l 7 7 u u c.v.N.N.z.i.M.J.K.o.O...=.&.1.+ + 5XcXxX0X0X7X;X    ",
"                        b m x x z l D 7 9 7 0 y e p.z.D.Y.D.J.K.+.O.4.>.&.1.+ 4X2X:XxXcX0XuX;X-X    ",
"                        < m x z F H 7 9 8 0 y t v.s.p.k.MXPXU.o.+.5.>.*.2.+ 4X2X5X<X9XzXuXuX-XqX    ",
"                            K l l D 9 s 0 r x.s.s.u.i.g.L.PXF.+.5.<.*.2.@ 4X2X:X<X1X6XuXxXyXqXqX    ",
"                            j l 7 u 8 u r t s.p.u.i.k.D.U.P.hXhX6.*.1.+ 4X2X:X,X>X7X7X7XxXyXqXqX    ",
"                                7 8 0 r e s.p.u.i.g.D.U.P.hXhXjXkXgX@ + 2X:X,X>X7X7X;X-XuXyXqXwX    ",
"                                7 0 y t s.s.u.u.$.M.K.P.hXhXjXgXkXfXfXfX5X<X>X>X;X;X-XqXrXyXeXwX    ",
"                                    c.v.p.p.i.@.%.G.P.hXhXjXkXkXfXfXzXlXxX0X6X7X;X-XqXqXwXrXtXeX    ",
"                                    u.s.p.i.@.$.F.P.hX6.gXgXkXfXzXzXlXxX0X0XuXyX7XqXqXwXwXeXeXeX    ",
"                                      PX@.i.$.%.U.hX5.,.&.1.@ + 4XlXxX0XuXuXuXyXyXyXrXwXeXcXcXeX    ",
"                                        @.$.#.o.+.5.<.*.1.+ 4X2X:X1X9X7X7X7X;X-XrXrXrXtXeXzXtXwX    ",
"                                            X.O...>.*.1.@ + 2X:X<X9X6X7X;X-XqXqXwXwXeXeXeXeXeXwX    ",
"                                                                                                    ",
"                                                                                                    ",
"                                                                                                    "
};
