/* XPM */
static char *_f5edecc9e3b4f7087c8ba0ab37031b79oY9nD3eimUaLV6g[] = {
/* columns rows colors chars-per-pixel */
"50 50 256 2 ",
"   c None",
".  c red",
"X  c #DB2412",
"o  c #D12E17",
"O  c #DF3010",
"+  c #DD3311",
"@  c #DF331A",
"#  c #E32A0E",
"$  c #E02D16",
"%  c #E12D16",
"&  c #E22C16",
"*  c #E12E17",
"=  c #E42D16",
"-  c #EA2A15",
";  c #E12D18",
":  c #E22F18",
">  c #E32A1C",
",  c #E23114",
"<  c #E33016",
"1  c #E33017",
"2  c #E23117",
"3  c #E53016",
"4  c #E53117",
"5  c #E43316",
"6  c #E43A17",
"7  c #EB3B14",
"8  c #E23018",
"9  c #E33118",
"0  c #E13219",
"q  c #E23218",
"w  c #E33218",
"e  c #E33319",
"r  c #E43018",
"t  c #E43119",
"y  c #E63119",
"u  c #E43218",
"i  c #E53318",
"p  c #E53219",
"a  c #E73318",
"s  c #E63219",
"d  c #E5301A",
"f  c #E4331A",
"g  c #E7321A",
"h  c #E6331A",
"j  c #E7331B",
"k  c #E33418",
"l  c #E33419",
"z  c #E43419",
"x  c #E43519",
"c  c #E73418",
"v  c #E73518",
"b  c #E63719",
"n  c #E5341A",
"m  c #E4351A",
"M  c #E5351A",
"N  c #E4341B",
"B  c #E4351B",
"V  c #E5351B",
"C  c #E6341A",
"Z  c #E7341A",
"A  c #E7341B",
"S  c #E6351B",
"D  c #E4361A",
"F  c #E5361A",
"G  c #E4361B",
"H  c #E5361B",
"J  c #E6361B",
"K  c #E2331D",
"L  c #E5341C",
"P  c #E6351C",
"I  c #E6371C",
"U  c #E7351E",
"Y  c #E93219",
"T  c #EB3619",
"R  c #E9341A",
"E  c #EA341A",
"W  c #E9361B",
"Q  c #EC3419",
"!  c #EC371A",
"~  c #E8371C",
"^  c #E43A18",
"/  c #E53B18",
"(  c #E43D18",
")  c #E53D18",
"_  c #E53F18",
"`  c #E53F19",
"'  c #E63F18",
"]  c #E63F19",
"[  c #E23A1D",
"{  c #E7381C",
"}  c #EA2A20",
"|  c #EB3B27",
" . c #FF4000",
".. c #E54217",
"X. c #E64616",
"o. c #E74617",
"O. c #E64717",
"+. c #E64816",
"@. c #E64916",
"#. c #E74B16",
"$. c #E74C16",
"%. c #E64019",
"&. c #E64119",
"*. c #E74218",
"=. c #E74219",
"-. c #E6411A",
";. c #E7421B",
":. c #E74718",
">. c #E7441A",
",. c #E84519",
"<. c #E84C18",
"1. c #E84F18",
"2. c #E75215",
"3. c #E85115",
"4. c #E75B15",
"5. c #E85C15",
"6. c #E85E16",
"7. c #E85F16",
"8. c #E85018",
"9. c #EC760E",
"0. c #ED7E0F",
"q. c #E96017",
"w. c #E96217",
"e. c #EA6615",
"r. c #EA6517",
"t. c #EA6716",
"y. c #EB6716",
"u. c #EA6617",
"i. c #EA6815",
"p. c #EA6B14",
"a. c #EB6B14",
"s. c #EA6817",
"d. c #EB6B17",
"f. c #EA6C14",
"g. c #EB6D14",
"h. c #EA6C15",
"j. c #EB6E14",
"k. c #EB6D16",
"l. c #EB6C17",
"z. c #EC6F15",
"x. c #EC6F16",
"c. c #EC6F17",
"v. c #EA6218",
"b. c #EA6319",
"n. c #EA6519",
"m. c #EB6D18",
"M. c #EB7013",
"N. c #EB7212",
"B. c #EB7213",
"V. c #EC7311",
"C. c #EC7012",
"Z. c #EC7313",
"A. c #EB7411",
"S. c #EC7611",
"D. c #EC7413",
"F. c #EC7513",
"G. c #EC7612",
"H. c #EC7712",
"J. c #EB7215",
"K. c #EC7314",
"L. c #EC7215",
"P. c #EC7016",
"I. c #EC7414",
"U. c #ED7714",
"Y. c #ED7A10",
"T. c #ED7812",
"R. c #ED7912",
"E. c #ED7813",
"W. c #ED7A12",
"Q. c #ED7C10",
"!. c #ED7C11",
"~. c #EE7D10",
"^. c #EE7C11",
"/. c #ED7E10",
"(. c #EE7E11",
"). c #EE7F11",
"_. c #ED7C12",
"`. c #ED7D13",
"'. c #EE7C13",
"]. c #EE7E13",
"[. c #EE7F13",
"{. c #ED7914",
"}. c #ED7815",
"|. c #EC7915",
" X c #ED7B14",
".X c #EE7C14",
"XX c #EE7C15",
"oX c #DF4020",
"OX c #EE810F",
"+X c #EE840D",
"@X c #EF860C",
"#X c #EF860D",
"$X c #EF860F",
"%X c #EF880F",
"&X c #F08909",
"*X c #F08F0A",
"=X c #F08B0C",
"-X c #F08A0F",
";X c #F08C0C",
":X c #F18D0D",
">X c #F08E0D",
",X c #F08C0F",
"<X c #F18F0E",
"1X c #F08E0F",
"2X c #F19506",
"3X c #F29807",
"4X c #F29A06",
"5X c #F29A07",
"6X c #F39D05",
"7X c #F39F05",
"8X c #F39C07",
"9X c #F39E06",
"0X c #F09309",
"qX c #F29309",
"wX c #F1910B",
"eX c #F1920A",
"rX c #F1930B",
"tX c #F19408",
"yX c #F19508",
"uX c #F29709",
"iX c #F1970A",
"pX c #F2970A",
"aX c #F2930E",
"sX c #F1940C",
"dX c #F2960C",
"fX c #F29A08",
"gX c #EE8011",
"hX c #EE8111",
"jX c #EE8310",
"kX c #EF8311",
"lX c #EE8013",
"zX c #EF8113",
"xX c #EE8212",
"cX c #EF8212",
"vX c #EF8312",
"bX c #EF8213",
"nX c #EE8313",
"mX c #EF8711",
"MX c #EE8412",
"NX c #EF8412",
"BX c #EF8413",
"VX c #EE8114",
"CX c #F08B10",
"ZX c #F5A303",
"AX c #F5A503",
"SX c #F4A603",
"DX c #F4A106",
"FX c #F5A505",
"GX c #F5A605",
"HX c #F4A406",
"JX c #F5A900",
"KX c #F5AA00",
"LX c #F6AC00",
"PX c #F6AE00",
"IX c #F6AF00",
"UX c #F7B200",
/* pixels */
"                                        2.      .                                                   ",
"                              }         t > .   t X .             >                                 ",
"                              J 7       t 0 t   0 t $ .         - t                                 ",
"                              0 J J - . 0 J J > 0 J t J     # 6 t 0                                 ",
"                              J J t t > $ $ 0 t t t 0 J 1 6 $ t $ J oX                              ",
"                              $ t J t 0 1 0 0 $ 0 0 0 0 J J 0 t J 1 0       . J .                   ",
"                    J 3 ;     t t t 0 J t 6 *._ _ _ *._ _ _ l 0 t t J 3 $ 3 $ J J                   ",
"                    J t J t @ 0 ; 0 l _ _ Z.gXgXgX(.gX-X0.gX6.*.*.t t t 1 t J J Q     +             ",
"                      t J J 0 J J *.3.gX(.#XBXgX(.(.gXAXAXgXgXBX(._ *.; t 0 t t +    .t             ",
"             .0 J 0 J Q t J 0 *.8.:XBXgX(.AXwXgXt.v.(.(.gXgX(.T.T.(.(.*.6 0 J $ $ 0 ~ 3             ",
"            - J J 0 J J t J ..(.gXFXgXgXBX#XgX(.(.c.m.9.(.(.t.v.t.{.T.gX6.*.t ; 0 J J .             ",
"              J J t J J J ,.(.H.(.BXgXT.(.H.T.A.T.gXBX(.(.gX(.t.n.n.gX(.(.Z.J $ t 0 t               ",
"                J J 0 J :.gX{.a.Z.{.gXT.T.6.q.4.h.:X:X:X(.H.gX(.a.a.(.H.T.gX8.0 J 0 J               ",
"                J t J o.gXgXn.n.6.a.gX(.h.a.a.h.gXFXFX7X(.6.Z.(.T.gXgXt.a.BXgX$.0 J t J J 0 J 0 J   ",
"                - 0 0 T.BXgXa.P.m.gX-X(.(.gXBX-XgXgXBX9.(.a.a.(.#X:X(.T.gXgXgXgX#.0 J J J J t t J   ",
"        3 t l $ I J #.BX%XgX&X(.gX(.LXgX(.gXgXBXgXgXBX(.wX0.gXgX:X7X(.(.T.gX-X#X(.J J 0 J J $       ",
"        1 t t $ J J gXgXT.-XUX(.gX(.7XBXU.{.(.BXgX{.BX(.LXwX#XgX(.gX(.H.H.gX7XpX(.3.J J J t I       ",
"          t 0 $ ; 1.gX{.a.-X7XBXXXU.gXgXv.v.BX(.gXt.(.T.5XDX:X(.U.{.gXq.n.T.gXgXgXgXJ t J J         ",
"            1 ; t (.gXt.n.n.(.gXa.6.(.gXc.P.BXgXgXc.{.gX(.gXgX(.n.P.gXP.v.T.gXU.gXgX^ 1 t J t       ",
"        R J 0 0 ; (.(.q.v.h.(.gXh.a.(.BXgXpXdXBXgXBXBXgX(.(.(.(.P.(.gXBXh.(.(.h.gXgX6.0 t J t J     ",
"      t J J t 0 l T.(.c.h.(.BXgX(.gXgXgXwXUXLXgXgXgXgX(.wXgX(.(.gXgXpXBXgXgXgX(.gX*X(.J J J 0 J     ",
"      J ~ J t t #.wX(.(.(.%XfXgX(.BXgXgXFXFXfXBXBX{.gX(.pXgX:XwXgXgXUX%XBXBXBXU.(.JXgXt J J t J     ",
"          t $ 0 a.ZXgX(.gX#XdX(.BX(.P.{.aX:XgXgX(.a.P.BXgXgXaXLXgXgXfXOXgXgXgXn.c.LXBX0 0 J t 1 t   ",
"      t 0 t $ J H.-X(.(.P.h.gXgXBX(.v.a.gXgXgX(.T.P.h.gXgXgXBXDXgXgX(.Z.gXgXgXt.n.pXBX0 0 0 0 0 J   ",
"      t J J $ J t.(.(.c.v.t.gXgXgXgXh.P.gX(.(.pXpX%X(.gXgXgXgX%XgXBXBXt.gXgXgXP.P.gXgX0 J 0 J t -   ",
"    t J J J J J 6.T.(.q.:X:XgXgXgXgX(.(.gX(.(.7XJXFX(.gX(.VXgXgX(.gXBXP.(.gXgXT.(.gXgX0 J l I t     ",
"    J ~ J J J J o.T.gXh.UXLXgX(.gX#X(.gXgXgXh.#XwXwXgX(.a.P.P.gXgX(.(.gXgXBXgXwX5X(.gXt t J t -     ",
"        J J J J J gX(.(.UX7X(.(.BX7XdXgXgX(.v.h.gX(.gXT.t.v.U.gXgX(.gXgX(.J.gXAXJX(.(.t 0 J 0 J     ",
"      t J J I J 0 gXT.(.wX#XM.(.gXwX:X(.gX(.U.{.(.(.(.(.Z.M.BXgXc.(.gX7XP.H.(.pX*XgX2.t 0 0 0 I     ",
"      t J J J t 0 h.2XgX(.gXt.(.(.(.(.(.gX(.BXgX5X5XpX(.9.gXBXBXM.(.7XLXXXgX(.T.9.(.J t t J 3       ",
"          3 J t J ..pXgX(.(.(.(.(.(.h.h.c.h.T.T.wXpX:XgX(.gXBX(.gXgX7XwXgXh.P.h.(.H.t $ J I         ",
"          J t t 0 t gXgX(.(.ZX(.(.(.q.v.n.6.a.(.(.gXgX(.gXgX(.gXBXgX#XgXXX6.q.H.(.#.t 0 I t 3       ",
"        . t 0 0 J t $.(.gX(.LXT.(.(.h.v.v.6.{.(.(.T.a.h.gX(.5XpXgXgXgX(.T.Z.Z.(.T.1 t J t 0 J       ",
"        J 0 t 1 0 J J 6.gXgX:X(.(.gX(.T.H.T.T.(.(.BXXX{.gX(.&X-XgXa.{.(.gX(.(.(.o.t t J $ 0 t       ",
"      3 J t t 1 t $ 0 ^ gX(.gX(.t.a.{.gXFXBX9.(.gXFXgXgX(.(.(.gXh.6.U.(.pXfX(.1.J J J t . + t       ",
"      1 R 0 R $ J t 0 J o.(.gX(.{.t.{.gXLXFX(.gXgX:XgXBXgX(.(.gXU.Z.(.(.%X-X#.J 0 t J               ",
"                  J J J t :.gXgXBX(.gXBX:X:X(.(.gX(.gX(.a.a.a.gXgXZX(.(.(.#.J J J J ; t             ",
"                Y 0 0 J J 0 o.XXBXFX%X(.BXgXa.t.T.(.(.t.n.q.{.gXAX:X(.gX:.J J J J J J t 3           ",
"                t t = 0 ~ J J *.,.:XgX(.BXgXZ.XX(.(.(.n.q.H.gXT.%XBXU.:.0 t J J t J 0 t $           ",
"                t t . ~ J l J J t *.1.BX(.BX(.BXAXJXZX(.(.gX(.T.(.:._ J t J 0 J   t 3 J >           ",
"                t     J J J t J t J J _ *.6.BXBX#XCX-XBX(.T._ _ _ J J J 0 I J 0 t                   ",
"                      J J J t K K J t J t ^ *._ *.*.*.*._ _ J t J J 0 J 3 [ K t t 3                 ",
"                      J t J -     ; ; $ t J J ; t I t I t J 0 J J J t t t     o J }                 ",
"                      + t         t t J $ J J 0 J 0 J 0 t J t J I 0 ; J R                           ",
"                                  t 3 J . J 0 0 0 t 0 t J J J J J R t { 3                           ",
"                                  t t     - 0 - > { I t J J J     . X 0 .                           ",
"                                  X         t     oXJ 1 | oXt         |                             ",
"                                            .        .I     .                                       ",
"                                                                                                    ",
"                                                                                                    "
};
