/* XPM */
static char *_53c7ef28d394a15e2c268397fa193cfeVKSXQZRERYaurUc[] = {
/* columns rows colors chars-per-pixel */
"50 50 256 2 ",
"   c None",
".  c #68AB5F",
"X  c #6ABF55",
"o  c #7AB554",
"O  c #79B754",
"+  c #7BB757",
"@  c #7FBB52",
"#  c #7EBB56",
"$  c #73B359",
"%  c #72B25A",
"&  c #75B559",
"*  c #75B65E",
"=  c #79B75A",
"-  c #78B85D",
";  c #499F7A",
":  c #5FA864",
">  c #5FA86A",
",  c #5FA86D",
"<  c #57A672",
"1  c #52A375",
"2  c #57A776",
"3  c #5BA575",
"4  c #59A677",
"5  c #5AA974",
"6  c #5BA877",
"7  c #5DA976",
"8  c #54A578",
"9  c #54A47A",
"0  c #51A37D",
"q  c #53A87D",
"w  c #58A87B",
"e  c #5BAB7A",
"r  c #69AF61",
"t  c #69AF63",
"y  c #62AB6C",
"u  c #62AC6C",
"i  c #6DAF69",
"p  c #6AB167",
"a  c #6FB465",
"s  c #69B068",
"d  c #70B161",
"f  c #72B361",
"g  c #73B560",
"h  c #73B763",
"j  c #72B566",
"k  c #60AB70",
"l  c #62AC71",
"z  c #64AF74",
"x  c #80BF40",
"c  c #85BD42",
"v  c #87BD44",
"b  c #88BB44",
"n  c #88BE44",
"m  c #88BF45",
"M  c #89BF45",
"N  c #89BF46",
"B  c #88BE47",
"V  c #8ABF46",
"C  c #8ABF47",
"Z  c #8BBF47",
"A  c #84BD4F",
"S  c #85BD4F",
"D  c #86BF4F",
"F  c #88BF4B",
"G  c #8ABF4A",
"H  c #8CBF48",
"J  c #92BF49",
"K  c #83BC51",
"L  c #8FBF50",
"P  c #89BF54",
"I  c #83BD58",
"U  c #AAAA55",
"Y  c #8BC045",
"T  c #8BC046",
"R  c #8AC047",
"E  c #8BC047",
"W  c #8AC147",
"Q  c #8BC147",
"!  c #8BC247",
"~  c #8DC146",
"^  c #8EC246",
"/  c #8BC048",
"(  c #8BC148",
")  c #8AC14A",
"_  c #8CC048",
"`  c #8CC049",
"'  c #8CC248",
"]  c #8DC248",
"[  c #8DC249",
"{  c #8FC249",
"}  c #8EC14A",
"|  c #8DC24A",
" . c #8FC24A",
".. c #8EC34A",
"X. c #8FC34A",
"o. c #8FC24B",
"O. c #8EC34B",
"+. c #8FC44B",
"@. c #88C04D",
"#. c #8AC04E",
"$. c #8CC14D",
"%. c #8FC34C",
"&. c #8DC24F",
"*. c #8FC44C",
"=. c #8FC54D",
"-. c #92C249",
";. c #90C34B",
":. c #90C44B",
">. c #90C34F",
",. c #91C54C",
"<. c #90C44D",
"1. c #91C44D",
"2. c #90C54D",
"3. c #91C54D",
"4. c #92C54D",
"5. c #92C74C",
"6. c #92C54E",
"7. c #92C849",
"8. c #8BC151",
"9. c #8FC351",
"0. c #8EC655",
"q. c #0055AA",
"w. c #187FA9",
"e. c #006DBB",
"r. c #006EBB",
"t. c #006BBD",
"y. c #0F7CB0",
"u. c #0979B7",
"i. c #0071B8",
"p. c #0777B9",
"a. c #0072BD",
"s. c #0071BE",
"d. c #0072BE",
"f. c #0073BE",
"g. c #0073BF",
"h. c #0075BD",
"j. c #0277BC",
"k. c #0074BE",
"l. c #0075BE",
"z. c #0076BE",
"x. c #077EBB",
"c. c #0178BC",
"v. c #017ABD",
"b. c #0078BF",
"n. c #047ABD",
"m. c #037DBD",
"M. c #077DBE",
"N. c #0A7EB9",
"B. c #097DBA",
"V. c #087DBC",
"C. c #107FB2",
"Z. c #127CB6",
"A. c #127FB7",
"S. c blue",
"D. c #0074C0",
"F. c #0075C0",
"G. c #0076C0",
"H. c #0177C0",
"J. c #0077C1",
"K. c #0074C3",
"L. c #0077C2",
"P. c #0074C5",
"I. c #0076C4",
"U. c #0078C0",
"Y. c #0078C1",
"T. c #0079C1",
"R. c #0179C1",
"E. c #0078C2",
"W. c #0078C3",
"Q. c #0079C3",
"!. c #007BC2",
"~. c #007AC3",
"^. c #007BC3",
"/. c #047AC0",
"(. c #007CC1",
"). c #007DC1",
"_. c #037EC0",
"`. c #017CC3",
"'. c #057CC0",
"]. c #047EC1",
"[. c #067FC1",
"{. c #047EC3",
"}. c #007AC4",
"|. c #007BC4",
" X c #007BC6",
".X c #007CC4",
"XX c #007DC4",
"oX c #007CC5",
"OX c #007DC5",
"+X c #007EC4",
"@X c #007EC5",
"#X c #007FC5",
"$X c #007CC6",
"%X c #007FC6",
"&X c #007ACC",
"*X c #008080",
"=X c #3A948F",
"-X c #2D8B97",
";X c #2E8E97",
":X c #278E9F",
">X c #338F95",
",X c #2E9098",
"<X c #2F9198",
"1X c #2F939A",
"2X c #2B939F",
"3X c #339493",
"4X c #349493",
"5X c #389994",
"6X c #32949A",
"7X c #33949A",
"8X c #30939D",
"9X c #399899",
"0X c #1A87A7",
"qX c #1E86A7",
"wX c #1584AE",
"eX c #1981AB",
"rX c #1C86A9",
"tX c #1882AD",
"yX c #1886AE",
"uX c #0080BA",
"iX c #0080BF",
"pX c #0780BD",
"aX c #0880BA",
"sX c #0C84BB",
"dX c #0A81BE",
"fX c #1280B1",
"gX c #1080B4",
"hX c #1081B6",
"jX c #1282B6",
"kX c #188BB1",
"lX c #1D8BB0",
"zX c #238CAD",
"xX c #2991A0",
"cX c #3091A0",
"vX c #419C87",
"bX c #469F86",
"nX c #499D80",
"mX c #409A8B",
"MX c #429D8B",
"NX c #4DA080",
"BX c #4AA287",
"VX c #47A18B",
"CX c #53A380",
"ZX c #56A382",
"AX c #55A686",
"SX c #0480C0",
"DX c #0280C5",
"FX c #0080C6",
"GX c #0080C7",
"HX c #0081C7",
"JX c #0080C8",
"KX c #0081C8",
"LX c #0083C9",
"PX c #0080CC",
"IX c #0080D4",
"UX c cyan",
/* pixels */
"                                        S.IXq.q.q.q.q.q.q.UXq.                                      ",
"                                  uXiXiXJ..XGXf.J.!.J.GXJ.D.J.m.iX*X                                ",
"                              X f !..Xf.!.J.!..XJ.!.GX!.!..X!.!.!.(.P.iX                            ",
"                          b ;.$ h N.p.u.u.p.|.J.|.J.!..X.X!.!.J.J.J.!.!.GXP.                        ",
"                      x G <.<.B <.[ z &.A ZXhXsXy.(..XJ.J.J.!.J.J.f.!.!..XJ.J.                      ",
"                    0.7.Q [ [ Q [ <.v B v <.B [ Q wXJ..XJ.|.|.!.!.h.y.hXhXsXM.y.iX                  ",
"                  L [ [ Q Q [ [ [ Q Q B B [ ;.[ [ <.J.!.!.!.J.J.!.cXc [ #.f mXqX9 <.                ",
"                J <.=.B Q Q <.<.[ [ ;.;.[ [ [ B [ <.!.D.!.J.!..XhX[ [ B ;.Q Q +.Q [ 7.              ",
"              b [ ;.[ B [ [ [ [ [ <.<.<.;.[ [ B #.- .X!.!.!.KX.Xz [ [ B ;.c [ [ <.B ( U             ",
"            7.[ [ ( B B [ Q [ Q [ [ <.;.[ <.;.f 6 aX.X.XGX|.!.GXfX$ ;.[ Q ;.[ <.[ [ [ [             ",
"            H [ c <.B [ Q Q [ ;.B ;.[ <.[ [ = J..X|.!.!.|.|.J..X.XZ.j &.[ <.[ ;.[ [ [ [ <.          ",
"          B Q [ c ( [ [ Q [ [ ;.[ ;.;.<.t p :X!.!..X!..X.X.XJ.!.GX.X.Xl t :.B B [ <.[ [ ;.7.        ",
"          Q [ [ B B Q [ [ [ B <.[ Q [ O !.!.|.!.J.|.!..X.X|.!.!.!.!.!..X{.s <.[ [ [ [ ;.B Q         ",
"        =.[ [ <.B Q [ B [ [ Q [ <.[ [ MXJ..X|.:X:XxX.X!..X|.J.!.!.!.f.!..X.XO [ B v ;.<.[ [ [       ",
"        <.;.B [ [ [ [ Q Q [ B [ [ [ [ 0X!.J.J.~ ;.G .X!.!.J.J.J.J.!.!..X.X!.=X( Q [ ;.<.;.<.[       ",
"      B <.;.[ <.[ +.<.Q B [ B ( <.#.( m.J.f.J., l 2 |.J.!.!.!.J.!..X!..X.X!.!.( ;.( <.<.[ <.[ G     ",
"      [ [ [ [ <.<.[ +.[ B [ Q [ * O [ !.J.u.,XfXJ..X.X|.!.!.!..X.X.X!.!.!.!.|., - [ <.<.;.;.[ Q     ",
"      [ [ [ [ Q <.[ [ B Q Q ;.[ 3XbX6 |.!.bXQ :Xf..X.X.X!.!.!..X.X!.!.J.!.!.|.J.8X7 <.<.<.;.<.B     ",
"    P.Q [ [ [ [ Q [ [ [ B A &.a hX!.J..X8X[ [ {.J.!..X.X.XGX.X.X.XJ.!.J.!.J.!..X!.c.3 y [ [ [ Q     ",
"    .X6 :.;.B [ B B Q [ & BX9 < !.J.N.5X@ ( O |.!.!..X.X(.GX.X!..X!.!.J.!.J.!..X.X.X!.fX9 6 &.[ &.  ",
"    .XM.9 q [ [ [ [ B B 7X.X,X3 !.7XhXt Q w 4XJ.J.!..X.X(.|..X.X.X|.!.J.!.!..X.X.X.X!.!..XSX0 9 A   ",
"    .X!..XGX:.;.+.<.[ 1 .X.XmXA.!.I {.; ~ {..X!.f.!..X!..X.X.X|.!..XJ.|..X.X.XGX.X.X!..X.X!.!.{.xX  ",
"    .XJ..X(.[ <.NXAXNXx..X.X!.J..Xw .X4XNX!..X!..X.X!..X.X!..X!..X.XJ.GX!..XJ..X.X.X.X.X.X!..X.X!.  ",
"    .X!.!..X[ h !.GX.XvX|..XJ.!..XdX!.J.!.J.J.!..X.X!..XKX.X!..X.X.X!..X!..Xf..X.X.X!..X.X.X.X.XJ.  ",
"    .X.X!.J.[ cX!..XbXB vX!.!..X!..XJ.J.J.!.J..X!..X!.!..X.X|.GX.X!..X.X.X.X!.!.!.|..X!.!..X.XGXJ.  ",
"    |..X!.J.[ .X!.!.;.[ P !.!.|.!.GXJ.J.J.!.J..X!.|.|..X!..X.X.X.X.X!.|.!..X.X!.!.!.!.!.J.|.!.!.J.  ",
"    !..X!.J.u .X.X9X<.[ VX.X!.!.!..XJ.!.|.!.!.|.!..X!.GX!..X.X.X.XGX.X!.!..X!.!.GX.XJ.!.J.!.f.J.J.  ",
"    !.!.!.J.rX.X.XAX9.h pX!.!.!.!.!.!..X.X!..X.X.X|.!.!..X.X.X.X.X.XGX.X!.!.!..X.X.XJ..X!.!.J.!.!.  ",
"    .X!..X!.BX.X.XlX9XxX|.J.!.J.!..XGX!..X!.!.|..XJ.!.!..X.X.X.X.X.X!..X!.!.!..X.X!.|.!..X.X!..X.X  ",
"    !.!..X|.P w GX.X.X!..X!.!.!..X.XKX!..X.X.X.X.X!.!..X!.!.!.!.!..XJ.!.!.!..X!.!.!.!..X!.!.!.!.&X  ",
"      J.|..X#.[ w .X!..X{.!.!.(..X.X.X!.GX!..XJ..X!.!.!.1 1 .XJ.J.!.!.!.J.!..X!..XJ.f.!.!.J.!.J.    ",
"      J.!..X,X>X7X!..X.Xk 7 .X.X.X.X!.|..X!.!.!.J.(.!.J.. B 6 2 !.!..X!.f..X.X.X.X!.f..X.X!.!.J.    ",
"      J.J.J.J.J.J.!..X.X,X7XpX.X!.!.!..X.X.X.X!.!..X!.J.qX;X,X-X!.!.!.!.J..X.X.X!.D.!..XKX!.J.!.    ",
"      P.!.J.J.!.!.!..X.X!.!.(..X!.|.A.z k k z J.!..X!.J.J.J.!.J.!.!.!.|.!.J.!..X|.!.!.!..X!.J.      ",
"        !.!.J.!.J.!.(..X!..X.X.X!.!.i <.[ [ [ mXJ.!.J.nX> !.!.J.!.!..X!.!.J.!.(..X.X.X.X!.!.J.      ",
"        &X|.J.J.J.!.!..XJ..X!..X!.!.<.;.[ [ [ # : u s K [ u 2X!.|..X.XJ.!.!.!.J.!.!.!.!.!.!.IX      ",
"          |.J.J.!.h.J.!..X.X!.!.!.J.8.;.<.[ Q B ( v B Q Q ;.- CXJ..X!.J.J.|.J.J.J.J.!.J.J.|.        ",
"            !.f.!.J.J.J.!.!..XJ..X!.5X[ [ [ c [ ;.B B [ ;.[ <.A J..X(.t c.!.J.f.J.J.J.!.!.S.        ",
"            J.J.J.!.!.!.!.!.GX.X.X!.V.[ [ [ [ B [ B [ [ ( Q Q A J.!.u [ !.!.J.J.J.J.J.f.c.          ",
"              h.J.!..X|..X|..X.X|.!.!.:X;.[ [ B [ [ [ B [ B B rXJ.e.( CX!.!.J.!.!.!..Xt.            ",
"                !.J.h.h..X(..X.X!.|..Xh.eXw.kXyXtX~ [ B B Q $ !.f.f.yXN.!.f.J.f.J.J.(.              ",
"                w.D.J.f.(..XGX.X.X|.!..XJ.J.!..X|.wXqXQ B ;XC.!.h.GX.XJ..XJ..Xf.J.h.                ",
"                  q.!.J.GX!.!.|.GX|.!.!.!.f..X!.J.!.!.zXcXn.!.J.!.|..XJ..X!.!.J.J.                  ",
"                      !.|..X.X!.!.!.!.!.J.!..X!.J..X.X!./.!.e.!.!.!..X.X.X.X!.J.                    ",
"                        KXuXJ.J.J..X.X.X(.!.f.!.!.!.!..X.X!.|.e..X.X.X!.KXiXIX                      ",
"                            i.!.h..X.X!.J..X!.e.GX!..X.X.X.XJ.!.!..X!.!.GXq.                        ",
"                                PXP..X.XJ.!.J..X.XGX!.J..X!.!..X.XP.P.UX                            ",
"                                    iXiXiXP.P.|.(.|.J.!.!.P.iXiXUX                                  ",
"                                              *XUXq.IXUXq.                                          ",
"                                                                                                    "
};
