/* XPM */
static char *_eae8cf795624cfd925ea0e7dbb4812bUrjcMPX8t2wVSiAB[] = {
/* columns rows colors chars-per-pixel */
"50 50 245 2 ",
"   c None",
".  c black",
"X  c #4B7A74",
"o  c red",
"O  c #D6B211",
"+  c #E6BA0C",
"@  c #FBBF00",
"#  c #FFBF00",
"$  c #C9B020",
"%  c #FBC000",
"&  c #FBC100",
"*  c #F8C300",
"=  c #FAC200",
"-  c #FBC200",
";  c #FBC300",
":  c #FCC000",
">  c #FCC100",
",  c #FCC200",
"<  c #FDC200",
"1  c #FCC300",
"2  c #FFC200",
"3  c #FFC300",
"4  c #FBC400",
"5  c #FBC500",
"6  c #FCC400",
"7  c #FCC500",
"8  c #FFCC00",
"9  c #FFD100",
"0  c #FFD400",
"q  c yellow",
"w  c #00609F",
"e  c #2A6A8E",
"r  c #2A6B8E",
"t  c #2D6E8D",
"y  c #2C6E8E",
"u  c #397481",
"i  c #226A95",
"p  c #296D91",
"a  c #2A6D90",
"s  c #2A6E90",
"d  c #2A6F91",
"f  c #2A6F92",
"g  c #2A7092",
"h  c #2A7394",
"j  c #0053A5",
"k  c #0054A6",
"l  c #0055A7",
"z  c #0057A8",
"x  c #0057A9",
"c  c #0055AA",
"v  c #0050AF",
"b  c #0058A9",
"n  c #0058AA",
"m  c #0059AA",
"M  c #0059AB",
"N  c #005AAA",
"B  c #005AAB",
"V  c #005BAB",
"C  c #005CAB",
"Z  c #005EAA",
"A  c #0059AC",
"S  c #005AAC",
"D  c #005BAC",
"F  c #005BAD",
"G  c #005CAC",
"H  c #015CAC",
"J  c #005DAC",
"K  c #005CAD",
"L  c #005DAD",
"P  c #005EAD",
"I  c #005CAE",
"U  c #005DAE",
"Y  c #005EAE",
"T  c #005FAE",
"R  c #005EAF",
"E  c #005FAF",
"W  c #005BB0",
"Q  c #005DB0",
"!  c #005FB0",
"~  c #0F67A7",
"^  c #0961AF",
"/  c #0060B0",
"(  c #0060B1",
")  c #0061B1",
"_  c #0061B2",
"`  c #0062B2",
"'  c #0063B3",
"]  c #0462B1",
"[  c #0463B2",
"{  c #0064B3",
"}  c #0065B4",
"|  c #0065B5",
" . c #0066B4",
".. c #0466B4",
"X. c #0A67B4",
"o. c #0B69B5",
"O. c #0A69B6",
"+. c #0B6BB7",
"@. c #0E69B5",
"#. c #0C69B6",
"$. c #0D6AB7",
"%. c #0C6BB7",
"&. c #0F6CB7",
"*. c #006CB9",
"=. c #0C6CB8",
"-. c #0D6CB8",
";. c #0C6DB9",
":. c #0E6CB8",
">. c #0E6EB9",
",. c #0F6EB9",
"<. c #0C6EBA",
"1. c #0E6FBA",
"2. c #1168B3",
"3. c #0E70BA",
"4. c #0E70BB",
"5. c #0F70BB",
"6. c #0D70BC",
"7. c #0F72BC",
"8. c #0F72BD",
"9. c #1576BF",
"0. c #2171B7",
"q. c #2575BA",
"w. c #0F75C0",
"e. c #2386CA",
"r. c #258BCE",
"t. c #329AD7",
"y. c #329BD9",
"u. c #38A3DE",
"i. c #3AA5E0",
"p. c #3BA7E1",
"a. c #3CA8E2",
"s. c #3DAAE4",
"d. c #3EABE4",
"f. c #3EACE4",
"g. c #3FADE5",
"h. c #4A8EC6",
"j. c #4991CA",
"k. c #5591C7",
"l. c #5A98CB",
"z. c #6D9ECD",
"x. c #49A0D7",
"c. c #53ABDF",
"v. c #5FABDC",
"b. c #6DA8D5",
"n. c #43B1E9",
"m. c #44B3EA",
"M. c #45B4EB",
"N. c #46B4EB",
"B. c #46B5EB",
"V. c #46B6EB",
"C. c #43B5EC",
"Z. c #43B5ED",
"A. c #45B5EC",
"S. c #44B6ED",
"D. c #45B6ED",
"F. c #45B7ED",
"G. c #47B7EC",
"H. c #46B7ED",
"J. c #47B7ED",
"K. c #45B7EE",
"L. c #46B7EE",
"P. c #47B7EE",
"I. c #48B7EB",
"U. c #49B7EB",
"Y. c #48B7EC",
"T. c #49B6ED",
"R. c #47B8EA",
"E. c #45BAEA",
"W. c #46B8ED",
"Q. c #47B8ED",
"!. c #46B9ED",
"~. c #46B8EE",
"^. c #47B8EE",
"/. c #49B8EC",
"(. c #48B8ED",
"). c #48B8EE",
"_. c #48B9EE",
"`. c #49B9EE",
"'. c #49B9EF",
"]. c #4AB9EE",
"[. c #49BAEE",
"{. c #49BBEE",
"}. c #49BAEF",
"|. c #49BBEF",
" X c #4ABAEE",
".X c #4BBAEE",
"XX c #4ABBEE",
"oX c #4BBBEE",
"OX c #4ABAEF",
"+X c #4BBAEF",
"@X c #4ABBEF",
"#X c #4BBBEF",
"$X c #4FB9ED",
"%X c #4CBAEE",
"&X c #4CBBEE",
"*X c #4CBBEF",
"=X c #4EBAEE",
"-X c #49BCED",
";X c #4BBCEF",
":X c #4CBCEF",
">X c #4DBCEF",
",X c #4DBDEF",
"<X c #4EBDEF",
"1X c #4EBEEF",
"2X c #4DB3F2",
"3X c #4BB9F0",
"4X c #49BAF0",
"5X c #4BBBF0",
"6X c #4DBCF0",
"7X c #4CBDF0",
"8X c #4EBDF0",
"9X c #4EBEF0",
"0X c #4FBEF0",
"qX c #4FBFF0",
"wX c #4DBFF2",
"eX c #40BFFF",
"rX c #50BEF0",
"tX c #50BFF0",
"yX c #33CCFF",
"uX c cyan",
"iX c #55C6E3",
"pX c #4EC4FF",
"aX c #51C0F1",
"sX c #52C0F0",
"dX c #54C0F0",
"fX c #5AC4F1",
"gX c #67C5F1",
"hX c #6EC7F1",
"jX c #8BBADE",
"kX c #86D0F4",
"lX c #A9DEF7",
"zX c #80FFFF",
"xX c #BAE5F8",
"cX c #D9E7F4",
"vX c #D7F0FB",
"bX c #D9F1FB",
"nX c #E5EFF7",
"mX c #EDF4F9",
"MX c #EFF9FD",
"NX c #F1F6FB",
"BX c #F3F7FB",
"VX c #F1FAFD",
"CX c #FDFEFF",
"ZX c #FEFFFF",
"AX c white",
/* pixels */
"                                                                                                    ",
"                                                        yX                                          ",
"                                                    !.%X@X@X@X                                      ",
"                                                    @X@X!.@X@XeX                                    ",
"                                                  %X@X@X!.@X@Xn.                                    ",
"                                                    @X@X@X@X@XuX                                    ",
"                                                    wX@X1X1X-X                                      ",
"                                                      Q D                                           ",
"                                                      L D                                           ",
"                                                      D L                                           ",
"                                                      B D                                           ",
"                                                I.K.@Xi.f.E.                                        ",
"                                      %X@X@X@X@X1X@X%X@X@X@X@X-X5X5X                                ",
"                                  zX@X1XwX@X@X@X@X1X1X@X@X@X@XwXwXwX                                ",
"                                @X1X1X1X@X@X1X@X@X@X@X1X!.@X@X@X@X1X@X1X                            ",
"                            T.@X@XwX@X@X@X@X1X@X1XwX1X1X1X@X@X@XwX1XsX1X5XiX                        ",
"                            @X@X1X%X@X@X!.@X@X1XwX@X-X1X@X@X@X@X%X1X1X@X@X@X                        ",
"                          5X@X@X@X@X@X@X@X1X@X1X%X@X@X@X@X@X!.@X@X@X@X@X@X@XZ.                      ",
"                        !.@X@X1XgX@X%X1X1X@XwX@X%X@X@XK.@XT.-X1X@X@X1X@X!.%XK.2X                    ",
"                      uX@X1XxXZXZXZXv.1X1X1X1XkXZXZXZXjXx.@X@X!.@XhXlXbXMXc.K.@X                    ",
"                      @X1X@XZXZXBXh.L e.1X1XdXvXZXmX^ L D 1XrX@XrXVXZXBXl.x T.1X%X                  ",
"                    pX@X@X@XZXnXq.B B i.1X1XfXZXk.2./  .D !.@X@X@XZXcX0.B D t.@XwX                  ",
"                    %X@X@X@Xb.L L D <.@X@X1XdXj.L L L / ..@X@X@XZ.z.j D L B y.!.@X                  ",
"                    K.1X@XwXa.D L $.m.@X@X1X@Xu.B B D Q f.@X@X@X@Xr.B D B 9.K.@X@X                  ",
"                  E.@X@X1X@X@X@X@X!.@X1X1X@X@X@X@XK.@X@X1X@X1X@X@X1X@X@X@X1X@X@XK.@X                ",
"                  K.@X%X!.K.@X@XK.K.@XK.!.@X@X@X@X@X!.!.1X@X!.%X@X@X!.@X@X@XrXwX@X@X                ",
"                  @X%X@X@X@X@X!.@X@X@X@X@X@X@X@X@X!.@X@X@X@X@XK.@X1X1X@X@X@X@X@X@X%X                ",
"          .   w x d.d.K.1XB.B.B.T.@XB.T.I.K.@X@X@XT.@X@X@X@X%X@X1X@X@X@X@X@X1XsX@X@X                ",
"      L B B L B D [ [ $.<.+.+.+.$.<.X.:.+.$.8.<.3.<.<.w.:.3.<.<.<.$.<.<.<.<.3.&.8.8.L L L L x       ",
"    C B B L L D D L L D D B L B B x L L L D B L B L L L { / / B D D Q / L L / / L D L L B D L Q     ",
"    L L B D D L B L D L L L D L L D B D L  .x L x / L L B B L  .L / k / / B D L L D L L D B B C     ",
"    W L B Q / x D L L D L L L D L / L B L / L B B L L / L / / Q L L L x B B k D L B L D D D B L     ",
"                  < @ & & & & @ + O $ C L p t e e p t p g ~ *.L i p e p h p p u X C v               ",
"                  # 7 4 & @ & @ & < #     < 7 & & 7 & & & <     4 < & 4 & & & & &                   ",
"                    # < & & & & 7         < & & & & < 7 <         & & & & & & &                     ",
"                      9 & < & < 0           8 & & & < <           0 < & & & & q                     ",
"                                                o o                   # & #                         ",
"                                                                                                    ",
"                                                                                                    ",
"                                                                                                    ",
"                                                                                                    ",
"                                                                                                    ",
"                                                                                                    ",
"                                                                                                    ",
"                                                                                                    ",
"                                                                                                    ",
"                                                                                                    ",
"                                                                                                    ",
"                                                                                                    ",
"                                                                                                    "
};
