/* XPM */
static char *_bd6d664d40d45d28468036f039d54beWw8LGiXCgT2qtefA[] = {
/* columns rows colors chars-per-pixel */
"50 50 143 2 ",
"   c None",
".  c black",
"X  c #555555",
"o  c #606060",
"O  c #646464",
"+  c gray40",
"@  c #676767",
"#  c #686868",
"$  c DimGray",
"%  c #6A6A6A",
"&  c gray42",
"*  c #6C6C6C",
"=  c #6D6D6D",
"-  c gray43",
";  c #6F6F6F",
":  c gray44",
">  c #717171",
",  c #727272",
"<  c gray45",
"1  c #747474",
"2  c gray46",
"3  c #767676",
"4  c #777777",
"5  c gray47",
"6  c #797979",
"7  c gray48",
"8  c #7B7B7B",
"9  c #7C7C7C",
"0  c #7E7E7E",
"q  c gray50",
"w  c #7F7F80",
"e  c #808080",
"r  c #818181",
"t  c gray51",
"y  c #838383",
"u  c #848484",
"i  c gray52",
"p  c #868686",
"a  c gray53",
"s  c #848688",
"d  c #888888",
"f  c #898989",
"g  c gray54",
"h  c #8B8B8B",
"j  c gray55",
"k  c #8D8D8D",
"l  c #8E8E8E",
"z  c gray56",
"x  c gray57",
"c  c #929292",
"v  c #939495",
"b  c gray58",
"n  c #959595",
"m  c gray59",
"M  c #979797",
"N  c #989898",
"B  c gray60",
"V  c #9A9A9A",
"C  c #9B9B9B",
"Z  c gray61",
"A  c gray62",
"S  c #A0A0A0",
"D  c gray63",
"F  c #A2A2A2",
"G  c gray64",
"H  c #A4A4A4",
"J  c #A5A5A5",
"K  c gray66",
"L  c #A9A9A9",
"P  c #A9AAAB",
"I  c #AAAAAA",
"U  c #ABADAF",
"Y  c #ACACAC",
"T  c gray68",
"R  c #AEAEAE",
"E  c #AFAFAF",
"W  c gray69",
"Q  c #B1B1B1",
"!  c #B2B2B2",
"~  c gray70",
"^  c #B2B4B5",
"/  c gray71",
"(  c gray72",
")  c #B9B9B9",
"_  c gray73",
"`  c #BBBBBB",
"'  c #BCBCBC",
"]  c gray75",
"[  c #C0C0C0",
"{  c #C1C1C1",
"}  c gray76",
"|  c gray77",
" . c #C5C5C5",
".. c #C6C6C6",
"X. c #C8C8C8",
"o. c gray79",
"O. c #CBCBCB",
"+. c gray80",
"@. c gray81",
"#. c #D2D2D2",
"$. c LightGray",
"%. c #D5D5D5",
"&. c gray84",
"*. c #D7D7D7",
"=. c #D6D8DA",
"-. c #D7D9DB",
";. c #D7DADC",
":. c gray85",
">. c #DADADA",
",. c gray86",
"<. c #D8DADC",
"1. c #D9DCDD",
"2. c gainsboro",
"3. c #DCDEDF",
"4. c gray87",
"5. c #DEE0E2",
"6. c #E1E1E1",
"7. c #E2E2E2",
"8. c gray89",
"9. c #E4E4E4",
"0. c #E7E7E7",
"q. c #E5E6E8",
"w. c gray91",
"e. c #E9E9E9",
"r. c gray92",
"t. c #EBECED",
"y. c #ECECEC",
"u. c gray93",
"i. c #EFEFEF",
"p. c gray94",
"a. c #F1F1F1",
"s. c #F4F4F4",
"d. c gray96",
"f. c gray97",
"g. c #F8F8F8",
"h. c #F8F8F9",
"j. c #F9F9F9",
"k. c #FBFBFB",
"l. c gray99",
"z. c #FDFDFD",
"x. c #FEFEFE",
"c. c #FEFFFF",
"v. c white",
/* pixels */
"                                                                                                    ",
"                                                      3 = < = < 3 t                                 ",
"                                                    = u >.>.>.>.G < <                               ",
"                                                = t $.v.v.v.v.v.v.d.H <                             ",
"                                              & 9 a.v.v.v.v.v.v.v.v.v.A =                           ",
"                                              & i.v.v.v.v.v.v.v.v.v.v.v.G +                         ",
"                                            3 T v.v.v.v.v.v.v.v.v.v.v.v.>.<                         ",
"                                            < { v.v.v.v.v.v.v.v.v.v.v.v.v.= =                       ",
"                                            < v.v.v.v.v.v.v.v.v.v.v.v.v.v.G 3                       ",
"                                            < v.v.v.v.v.v.v.v.v.v.v.v.v.v.$.3                       ",
"                                            < v.v.v.v.v.v.v.v.v.v.v.v.v.v.6 3                       ",
"                            = + <           < ! v.v.v.v.v.v.v.v.v.v.v.v.v.& t                       ",
"                        < < < < < < < = .   3 b v.v.v.v.v.v.v.v.v.v.v.v.{ =                         ",
"                      < H v.v.v.v.v.i.! T < = = ..v.v.v.v.v.v.v.v.v.v.v.b t                         ",
"                    < g v.v.v.v.v.v.v.v.v.v.v.U 6 *.v.v.v.v.v.v.v.v.v.t +       = < <               ",
"                    g v.v.v.v.v.v.v.v.v.v.v.v.t.-.w ! v.v.v.v.v.v.X.9 =       o 3 >.k <             ",
"                  = @.v.v.v.v.v.v.v.v.v.v.v.v.k.-.<.P t T ! T T u & <         = 6.v.v.6.< =         ",
"                  3 v.v.v.a.u *.4.v.v.v.v.v.v.v.k.5.-.;.-.^ v s 3           3 g u >.v.v.9.<         ",
"                3 X.v.v.v.T 3 3 = < r.v.v.v.v.v.v.v.v.1.4.q.v.v.x <         < 4.v.g 4.{ r.=         ",
"              & 6 k.v.v.( =       = < k *.v.v.v.v.v.v.v.v.v.v.v.v.r.< +     < @.k A C b k <         ",
"              < k.v.v.v.( =         = ( C v.v.v.v.v.v.v.v.v.v.v.v.v.a.3 < + 6 9.v.v.v.] 3           ",
"            X b v.v.v.v.v.C       X = v.v.v.v.v.v.v.v.v.v.v.v.v.v.v.v.v.3 < k.v.v.k.9 =             ",
"            < C v.v.v.v.! 3       < *.v.v.v.v.v.v.v.v.v.v.v.v.v.v.v.v.v.g 9.v.v.v.k 3               ",
"            X u k.v.v.v.t 3       t k.v.v.v.v.v.v.v.v.v.v.v.v.v.v.v.v.v.v.v.v.v.4.=                 ",
"              < 3 { r.k <       = b v.v.v.v.v.v.v.v.v.v.v.v.t 9 a.v.v.v.v.v.v.v.t                   ",
"                  < 6 < t       < d.v.v.v.v.v.v.v.v.v.v.v.( = 3 6 ( v.v.v.v.v.T <                   ",
"                                b v.v.v.v.v.v.v.v.v.v.v.v.u       = 6 G ! ! ! =                     ",
"                              + ] v.v.v.v.v.v.v.v.v.v.v.4.=             & = t                       ",
"                              < ] v.v.v.v.v.v.v.v.v.v.d.3 =                                         ",
"                              < 6.v.v.v.v.v.v.v.v.v.v.( <                                           ",
"                & =           = 6.v.v.v.v.v.v.v.v.v.9.= +                                           ",
"            = 3 3 3 3 .     t = @.v.v.v.v.v.v.v.v.v.t                                               ",
"            = 9.v.v.( 3 &   < X.] v.v.v.v.v.v.v.6.g <                                               ",
"        & 3 4.v.v.v.v.$.t = k v.C v.v.v.v.v.v.v.v.u =                                               ",
"      t = i.v.v.v.v.v.v.v.C v.v.! / v.v.v.v.v.v.v.v.6                                               ",
"      t 3 x u u u v.v.v.v.v.v.v.d.3 k.v.v.v.v.v.v.v.T 3                                             ",
"        = < < t < b v.v.v.v.v.v.v.i.3 6.v.v.v.v.v.v.v.t 3                                           ",
"                  & b v.v.v.v.v.v.v.6.& 9.v.v.v.v.v.v.9.< t                                         ",
"                    < 6 v.v.v.v.v.$.3 < < v.v.v.v.v.v.v...<                                         ",
"                      = < G P G t < t   = 6 9.v.v.v.v.v.v.k &                                       ",
"                          6 < +           t = 6.v.v.v.v.v.d.6 t                                     ",
"                                              = k.v.v.v.v.v.$.& P     . & <                         ",
"                                              & 6 i.v.v.v.v.v.>.< < < = 6 < <                       ",
"                                                = < 6.v.v.v.v.v.{ T ..v.v.< t                       ",
"                                                    < i.v.v.v.v.v.v.v.v.H =                         ",
"                                                    & 3 b v.v.v.v.v.v.b =                           ",
"                                                        = C >.v.v.v.P =                             ",
"                                                            < >.>.b =                               ",
"                                                            t 3 3 <                                 ",
"                                                                                                    "
};
